<svg width="489" height="497" viewBox="0 0 489 497" fill="none" xmlns="http://www.w3.org/2000/svg">
<path d="M430 273.406L372.838 317.578L430 361.751L269.366 486L254.001 474.107C236.81 460.856 236.81 433.786 254.001 420.534L295.154 388.707C301.923 383.497 306.006 376.022 307.51 368.207L269.366 397.655L253.894 385.649C236.702 372.398 236.702 345.328 253.894 331.963L295.046 300.136C297.195 298.55 298.055 292.661 298.162 284.846L269.259 307.158L253.894 295.266C236.702 282.014 236.702 254.944 253.894 241.693L295.046 209.866C312.238 196.614 312.238 169.544 295.046 156.293L253.894 124.466C236.702 111.214 236.702 84.1443 253.894 70.8926L269.259 59L429.893 183.136L371.549 228.214L430 273.406Z" fill="url(#paint0_linear_90_560)"/>
<path d="M23.1417 42.7423C23.1417 37.7627 27.0166 33.6884 31.7526 33.6884H35.9504V29.2747C35.9504 24.2951 39.8253 20.2208 44.5613 20.2208C49.2973 20.2208 53.1722 24.2951 53.1722 29.2747V33.6884H57.37C62.106 33.6884 65.9809 37.7627 65.9809 42.7423C65.9809 47.7219 62.106 51.7961 57.37 51.7961H53.1722V56.2098C53.1722 61.1895 49.2973 65.2637 44.5613 65.2637C39.8253 65.2637 35.9504 61.1895 35.9504 56.2098V51.7961H31.7526C27.0166 51.7961 23.1417 47.835 23.1417 42.7423ZM107.098 477.892H45.0995C40.3635 477.892 36.4886 481.967 36.4886 486.946C36.4886 491.926 40.3635 496 45.0995 496H107.098C111.834 496 115.709 491.926 115.709 486.946C115.709 481.967 111.834 477.892 107.098 477.892ZM54.8943 431.944C54.8943 426.964 51.0194 422.89 46.2835 422.89H8.61088C3.87489 422.89 0 426.964 0 431.944C0 436.924 3.87489 440.998 8.61088 440.998H46.2835C51.0194 440.998 54.8943 437.037 54.8943 431.944ZM373.389 2H330.12C325.384 2 321.509 6.07423 321.509 11.0538C321.509 16.0334 325.384 20.1077 330.12 20.1077H373.389C378.125 20.1077 382 16.0334 382 11.0538C382 6.07423 378.125 2 373.389 2Z" fill="url(#paint1_linear_90_560)"/>
<path d="M439 273.542C439 270.711 437.706 267.993 435.44 266.181L386.253 228.353L435.44 190.525C437.706 188.826 439 186.107 439 183.163C439 180.331 437.706 177.613 435.44 175.801L274.178 51.7838C271.157 49.4054 267.058 49.4054 263.93 51.7838L102.668 175.914C100.402 177.613 99.1079 180.331 99.1079 183.276C99.1079 186.221 100.402 188.826 102.668 190.638L263.93 314.768C266.95 317.147 271.049 317.147 274.178 314.768L371.69 239.678L415.701 273.542L366.513 311.371L348.391 325.301L348.283 325.415L269.108 386.347L122.407 273.429L153.365 249.532C157.249 246.587 158.004 240.924 155.199 236.847C152.395 232.77 147.001 231.977 143.118 234.922L102.668 266.067C100.402 267.766 99.1079 270.485 99.1079 273.429C99.1079 276.261 100.402 278.979 102.668 280.791L263.93 405.035C266.95 407.413 271.049 407.413 274.178 405.035L371.69 329.945L415.701 363.809L269 476.727L122.299 363.809L153.258 339.912C157.141 336.967 157.896 331.304 155.091 327.227C152.287 323.149 146.893 322.357 143.01 325.301L102.56 356.447C100.294 358.146 99 360.864 99 363.809C99 366.64 100.294 369.359 102.56 371.171L263.822 495.301C265.332 496.434 267.166 497 268.892 497C270.618 497 272.452 496.434 273.962 495.301L435.225 371.171C437.49 369.472 438.784 366.754 438.784 363.809C438.784 360.977 437.49 358.259 435.225 356.447L386.037 318.619L435.225 280.791C437.598 279.092 439 276.374 439 273.542ZM366.621 221.104L348.391 235.148L348.283 235.261L269.108 296.194L122.407 183.276L269.108 70.3581L415.808 183.276L366.621 221.104Z" fill="url(#paint2_linear_90_560)"/>
<path d="M473 14.3389H489V252.244H473V14.3389Z" fill="url(#paint3_linear_90_560)"/>
<path d="M473 8C473 3.58172 476.582 0 481 0V0C485.418 0 489 3.58172 489 8V15C489 19.4183 485.418 23 481 23V23C476.582 23 473 19.4183 473 15V8Z" fill="url(#paint4_linear_90_560)"/>
<defs>
<linearGradient id="paint0_linear_90_560" x1="335.496" y1="468.384" x2="335.496" y2="88.8174" gradientUnits="userSpaceOnUse">
<stop stop-color="#D500F9"/>
<stop offset="1" stop-color="#FFEA00"/>
</linearGradient>
<linearGradient id="paint1_linear_90_560" x1="0" y1="249.001" x2="382" y2="249.001" gradientUnits="userSpaceOnUse">
<stop stop-color="#24B47E"/>
<stop offset="1" stop-color="#DE3FB5"/>
</linearGradient>
<linearGradient id="paint2_linear_90_560" x1="99" y1="273.501" x2="439" y2="273.501" gradientUnits="userSpaceOnUse">
<stop stop-color="#24B47E"/>
<stop offset="1" stop-color="#DE3FB5"/>
</linearGradient>
<linearGradient id="paint3_linear_90_560" x1="473" y1="133.292" x2="489" y2="133.292" gradientUnits="userSpaceOnUse">
<stop stop-color="#24B47E"/>
<stop offset="1" stop-color="#DE3FB5"/>
</linearGradient>
<linearGradient id="paint4_linear_90_560" x1="473" y1="11.5" x2="489" y2="11.4951" gradientUnits="userSpaceOnUse">
<stop stop-color="#24B47E"/>
<stop offset="1" stop-color="#DE3FB5"/>
</linearGradient>
</defs>
</svg>
