<svg width="90" height="24" viewBox="0 0 90 24" fill="none" xmlns="http://www.w3.org/2000/svg">
<g clip-path="url(#clip0_16_2)">
<path d="M39 4.54L33.16 19H30.73L24.89 4.54H27.05C27.2833 4.54 27.4733 4.59667 27.62 4.71C27.7667 4.82333 27.8767 4.97 27.95 5.15L31.36 13.97C31.4733 14.2567 31.58 14.5733 31.68 14.92C31.7867 15.26 31.8867 15.6167 31.98 15.99C32.06 15.6167 32.1467 15.26 32.24 14.92C32.3333 14.5733 32.4367 14.2567 32.55 13.97L35.94 5.15C35.9933 4.99667 36.0967 4.85667 36.25 4.73C36.41 4.60333 36.6033 4.54 36.83 4.54H39ZM46.7067 13.4V19H44.0267V13.4L38.7567 4.54H41.1267C41.3601 4.54 41.5434 4.59667 41.6767 4.71C41.8167 4.82333 41.9334 4.96667 42.0267 5.14L44.6667 9.97C44.8201 10.2567 44.9534 10.5267 45.0667 10.78C45.1867 11.0333 45.2934 11.2867 45.3867 11.54C45.4734 11.2867 45.5734 11.0333 45.6867 10.78C45.8001 10.5267 45.9301 10.2567 46.0767 9.97L48.7067 5.14C48.7801 4.99333 48.8901 4.85667 49.0367 4.73C49.1834 4.60333 49.3701 4.54 49.5967 4.54H51.9767L46.7067 13.4ZM61.9355 16.78V19H53.4655V4.54H56.1555V16.78H61.9355ZM68.1716 13.4V19H65.4916V13.4L60.2216 4.54H62.5916C62.8249 4.54 63.0082 4.59667 63.1416 4.71C63.2816 4.82333 63.3982 4.96667 63.4916 5.14L66.1316 9.97C66.2849 10.2567 66.4182 10.5267 66.5316 10.78C66.6516 11.0333 66.7582 11.2867 66.8516 11.54C66.9382 11.2867 67.0382 11.0333 67.1516 10.78C67.2649 10.5267 67.3949 10.2567 67.5416 9.97L70.1716 5.14C70.2449 4.99333 70.3549 4.85667 70.5016 4.73C70.6482 4.60333 70.8349 4.54 71.0616 4.54H73.4416L68.1716 13.4ZM87.1203 4.54V19H85.7403C85.527 19 85.347 18.9667 85.2003 18.9C85.0603 18.8267 84.9236 18.7067 84.7903 18.54L77.2403 8.9C77.2803 9.34 77.3003 9.74667 77.3003 10.12V19H74.9303V4.54H76.3403C76.4536 4.54 76.5503 4.54667 76.6303 4.56C76.717 4.56667 76.7903 4.58667 76.8503 4.62C76.917 4.64667 76.9803 4.69 77.0403 4.75C77.1003 4.80333 77.167 4.87667 77.2403 4.97L84.8203 14.65C84.8003 14.4167 84.7836 14.1867 84.7703 13.96C84.757 13.7333 84.7503 13.5233 84.7503 13.33V4.54H87.1203Z" fill="white"/>
<rect width="5.59133" height="3.07061" rx="1.5353" transform="matrix(0.716215 0.697879 -0.716215 0.697879 5.20038 14.9551)" fill="#24B47E"/>
<rect width="8.19373" height="3.07061" rx="1.5353" transform="matrix(0.716215 0.697879 -0.716215 0.697879 15.6574 6.03442)" fill="#24B47E"/>
<rect width="8.19002" height="3.072" rx="1.536" transform="matrix(0.703925 -0.710274 0.728277 0.685283 13.6065 7.81714)" fill="#24B47E"/>
<rect width="12.9189" height="3.07061" rx="1.5353" transform="matrix(0.716215 0.697879 -0.716215 0.697879 5.51251 8.68652)" fill="#24B47E"/>
<rect width="23.0203" height="3.50803" rx="1.75402" transform="matrix(0.716215 0.697879 -0.716215 0.697879 5.51251 2)" fill="#24B47E"/>
</g>
<defs>
<clipPath id="clip0_16_2">
<rect width="90" height="24" fill="white"/>
</clipPath>
</defs>
</svg>
